<?xml version="1.0" encoding="utf-8"?>
<!-- Generator: Adobe Illustrator 23.1.1, SVG Export Plug-In . SVG Version: 6.00 Build 0)  -->
<svg version="1.1" id="Слой_1" xmlns="http://www.w3.org/2000/svg" xmlns:xlink="http://www.w3.org/1999/xlink" x="0px" y="0px"
	 viewBox="0 0 400 80" style="enable-background:new 0 0 400 80;" xml:space="preserve">
<style type="text/css">
	.st0{fill:#5E32B8;}
</style>
<g>
	<g>
		<path class="st0" d="M40.6,15.6v6.3H11.4V36h23.2v6.3H11.4v22.1H4.7V15.6H40.6z"/>
		<path class="st0" d="M55.1,64.4h-6.6V15.6h6.6V64.4z"/>
		<path class="st0" d="M84.2,42.3h-2.4L68.9,64.4h-7l14.7-25.8l-13.4-23h7l12.2,20.7h1l12.2-20.7h7l-13.5,23l14.8,25.8h-7L84.2,42.3
			z"/>
		<path class="st0" d="M147.4,58.8v5.6h-37.2V15.6h35.2v5.3h-28.6v15.7h23.2V42h-23.2v16.8H147.4z"/>
		<path class="st0" d="M155.3,64.4V15.6h17.2c13.6,0,25.3,10.8,25.3,24.4c0,13.6-11.7,24.4-25.3,24.4H155.3z M172.5,58.6
			c10.8,0,18.7-9.6,18.7-18.7c0-10.9-9.7-18.6-18.7-18.6H162v37.2H172.5z"/>
		<path d="M239.9,36.3V15.6h6.6v48.8h-6.6V42.3H212v22.1h-6.6V15.6h6.6v20.7H239.9z"/>
		<path d="M291.7,58.8v5.6h-37.2V15.6h35.2v5.3h-28.6v15.7h23.2V42h-23.2v16.8H291.7z"/>
		<path d="M306.3,64.4h-6.6l14.6-48.8h15.9l14.6,48.8h-6.6l-4-13.3h-23.9L306.3,64.4z M312.1,45.1h20.3l-7-23.5h-6.2L312.1,45.1z"/>
		<path d="M352.8,64.4V15.6H370c13.6,0,25.3,10.8,25.3,24.4c0,13.6-11.7,24.4-25.3,24.4H352.8z M370,58.6c10.8,0,18.7-9.6,18.7-18.7
			c0-10.9-9.7-18.6-18.7-18.6h-10.6v37.2H370z"/>
	</g>
</g>
</svg>
